<svg width="86" height="105" viewBox="0 0 86 105" fill="none" xmlns="http://www.w3.org/2000/svg">
<path d="M75.6824 9.45239H16.3464C10.8236 9.45239 6.34644 13.9295 6.34644 19.4524V94.6555C6.34644 100.178 10.8236 104.656 16.3464 104.656H75.6824C81.2052 104.656 85.6824 100.178 85.6824 94.6555V19.4524C85.6824 13.9295 81.2052 9.45239 75.6824 9.45239Z" fill="#8EAEC6"/>
<path d="M9.34336 102.941L2.19922 93.1934L9.34336 94.4411V102.941Z" fill="#6E8FA8"/>
<path d="M82.6761 92.4258V13.849C82.6761 13.1137 82.4063 12.404 81.9178 11.8545C80.0889 9.79695 76.6861 11.0808 76.6721 13.8337L76.3096 85.2378C76.2844 90.1905 72.2624 94.1921 67.3097 94.1921H13.0236C9.93857 94.1921 8.2698 97.8064 10.2706 100.155C10.9578 100.961 11.9641 101.426 13.0236 101.426H73.6761C78.6467 101.426 82.6761 97.3963 82.6761 92.4258Z" fill="#DFFBFF"/>
<path d="M69.4697 0.754639H10.1338C4.61094 0.754639 0.133789 5.23179 0.133789 10.7546V85.9578C0.133789 91.4806 4.61094 95.9578 10.1338 95.9578H69.4697C74.9926 95.9578 79.4697 91.4806 79.4697 85.9578V10.7546C79.4697 5.23179 74.9926 0.754639 69.4697 0.754639Z" fill="#8EAEC6"/>
</svg>
