<svg width="122" height="105" viewBox="0 0 122 105" fill="none" xmlns="http://www.w3.org/2000/svg">
<path d="M76.1394 8.84937H16.8035C11.2806 8.84937 6.80347 13.3265 6.80347 18.8494V94.0525C6.80347 99.5753 11.2806 104.052 16.8035 104.052H76.1394C81.6622 104.052 86.1394 99.5753 86.1394 94.0525V18.8494C86.1394 13.3265 81.6622 8.84937 76.1394 8.84937Z" fill="#8EAEC6"/>
<path d="M9.51138 102.007L1.84302 91.4448L9.51138 92.7968V102.007Z" fill="#6E8FA8"/>
<path d="M83.1331 91.8227V13.2459C83.1331 12.5107 82.8633 11.801 82.3749 11.2515C80.5459 9.19392 77.1431 10.4778 77.1291 13.2307L76.7666 84.6348C76.7415 89.5875 72.7195 93.5891 67.7667 93.5891H13.4806C10.3956 93.5891 8.72683 97.2034 10.7277 99.5516C11.4148 100.358 12.4211 100.823 13.4806 100.823H74.1331C79.1037 100.823 83.1331 96.7933 83.1331 91.8227Z" fill="#DFFBFF"/>
<path d="M69.9268 0.151611H10.5908C5.06797 0.151611 0.59082 4.62877 0.59082 10.1516V85.3547C0.59082 90.8776 5.06797 95.3547 10.5908 95.3547H69.9268C75.4496 95.3547 79.9268 90.8776 79.9268 85.3547V10.1516C79.9268 4.62876 75.4496 0.151611 69.9268 0.151611Z" fill="#8EAEC6"/>
<path d="M79.4697 44.1502V25.1211C79.4697 24.0165 80.3652 23.1211 81.4697 23.1211H117.989C119.617 23.1211 120.563 24.9632 119.614 26.2866L114.87 32.9034C114.392 33.5699 114.369 34.4606 114.813 35.1505L119.903 43.0687C120.759 44.3997 119.803 46.1502 118.221 46.1502H81.4697C80.3652 46.1502 79.4697 45.2548 79.4697 44.1502Z" fill="#D58080"/>
</svg>
