<svg width="267" height="174" viewBox="0 0 267 174" fill="none" xmlns="http://www.w3.org/2000/svg">
<path d="M78.0669 117.208L7.40803 140.015C5.47604 140.638 5.5948 143.411 7.57305 143.867L77.7378 160.043C78.1959 160.149 78.6765 160.09 79.0954 159.876L145.022 126.272C146.817 125.358 146.286 122.662 144.278 122.497L78.8451 117.118C78.5823 117.096 78.3178 117.127 78.0669 117.208Z" fill="#73A1CB" stroke="#40649A"/>
<path d="M7.81079 142.07V111.741H83.8654V142.07H7.81079Z" fill="#73A1CB" stroke="#40649A"/>
<path d="M13.8643 137.703V116.276C13.8643 114.142 15.2196 112.242 17.2383 111.548L77.5937 90.7926C78.2716 90.5595 78.9918 90.4749 79.7053 90.5445L136.625 96.0995C139.186 96.3495 141.139 98.5026 141.139 101.076V121.188C141.139 123.094 140.056 124.834 138.346 125.675L78.2213 155.245C77.1918 155.751 76.0196 155.888 74.9011 155.633L17.7508 142.578C15.4769 142.058 13.8643 140.036 13.8643 137.703Z" fill="#DAEDFF" stroke="#40649A"/>
<path d="M78.0669 87.0838L7.40803 109.89C5.47604 110.514 5.5948 113.287 7.57305 113.743L77.7378 129.919C78.1959 130.025 78.6765 129.966 79.0954 129.752L145.022 96.1483C146.817 95.2334 146.286 92.5383 144.278 92.3732L78.8451 86.9938C78.5823 86.9722 78.3178 87.0028 78.0669 87.0838Z" fill="#73A1CB" stroke="#40649A"/>
<path d="M78.0669 83.2378L7.40803 106.045C5.47604 106.668 5.5948 109.441 7.57305 109.897L77.7378 126.073C78.1959 126.179 78.6765 126.12 79.0954 125.906L145.022 92.3024C146.817 91.3874 146.286 88.6923 144.278 88.5272L78.8451 83.1478C78.5823 83.1262 78.3178 83.1568 78.0669 83.2378Z" fill="#73A1CB" stroke="#40649A"/>
<path d="M7.81079 108.1V77.771H83.8654V108.1H7.81079Z" fill="#73A1CB" stroke="#40649A"/>
<path d="M13.8643 103.733V82.3064C13.8643 80.1717 15.2196 78.2724 17.2383 77.5782L77.5937 56.8226C78.2716 56.5894 78.9918 56.5048 79.7053 56.5744L136.625 62.1295C139.186 62.3794 141.139 64.5325 141.139 67.1058V87.218C141.139 89.1237 140.056 90.8637 138.346 91.7047L78.2213 121.275C77.1918 121.781 76.0196 121.918 74.9011 121.663L17.7508 108.607C15.4769 108.088 13.8643 106.065 13.8643 103.733Z" fill="#DAEDFF" stroke="#40649A"/>
<path d="M78.0669 53.1135L7.40803 75.9202C5.47604 76.5438 5.5948 79.3163 7.57305 79.7724L77.7378 95.949C78.1959 96.0547 78.6765 95.9955 79.0954 95.782L145.022 62.1781C146.817 61.2631 146.286 58.5681 144.278 58.403L78.8451 53.0236C78.5823 53.002 78.3178 53.0325 78.0669 53.1135Z" fill="#73A1CB" stroke="#40649A"/>
<path d="M158.923 90.0515V154.361C158.923 160.812 162.533 166.863 168.639 168.944C189.338 176 209.124 173.098 221.771 168.831C227.646 166.849 230.994 161.038 230.994 154.838V91.2432C230.994 84.7199 227.273 78.6365 220.925 77.1314C203.927 73.1006 181.004 74.5763 167.846 77.5344C162.099 78.8267 158.923 84.1604 158.923 90.0515Z" fill="#73A1CB" stroke="#40649A"/>
<path d="M232.961 100.169L230.994 100.169V109.005C233.428 108.7 238.825 110.468 240.946 118.756C242.544 124.999 240.801 135.342 235.004 138.156C233.876 138.704 232.549 139.159 230.994 139.476V147.704L232.961 147.704C242.35 147.704 249.961 140.092 249.961 130.704V117.169C249.961 107.78 242.35 100.169 232.961 100.169Z" fill="#73A1CB" stroke="#40649A"/>
<ellipse cx="194.958" cy="81.7797" rx="29.0347" ry="4.84858" fill="#4A79A5"/>
<path d="M205.249 43.8028C187.711 45.6818 174.889 75.6184 174.367 85.2745C184.571 87.2912 210.105 87.2191 219.843 83.9371C219.176 83.6348 221.013 79.1635 221.745 72.8172C222.661 64.8843 260.494 68.5456 250.426 32.8419C242.371 4.279 257.663 0.584747 266.317 2.30799C241.263 -7.08707 242.829 24.2298 242.829 32.8419C242.829 41.4541 227.17 41.4541 205.249 43.8028Z" fill="#DAEDFF" stroke="#BFD9F0"/>
</svg>
